<?xml version="1.0" encoding="iso-8859-1"?>
<!-- Generator: Adobe Illustrator 19.0.0, SVG Export Plug-In . SVG Version: 6.00 Build 0)  -->
<svg version="1.1" id="Layer_1" xmlns="http://www.w3.org/2000/svg" xmlns:xlink="http://www.w3.org/1999/xlink" x="0px" y="0px"
	 viewBox="0 0 512 512" style="enable-background:new 0 0 512 512;" xml:space="preserve">
<circle style="fill:#C2D5D8;" cx="256" cy="256" r="256"/>
<path style="fill:#5AB3A3;" d="M286.736,510.092c23.828-2.852,46.656-8.916,68-17.852V196h-68V510.092z"/>
<path style="fill:#3F8C7F;" d="M354.736,492.244c24.924-10.424,47.812-24.724,68-42.076V196h-68V492.244z"/>
<polygon style="fill:#45998B;" points="424,196 356,219.88 288,196 356,172.116 "/>
<path style="fill:#CC665C;" d="M186.736,502.436c21.652,6.076,44.436,9.416,68,9.532V156h-68V502.436z"/>
<path style="fill:#BF5347;" d="M254.736,511.968c0.424,0,0.84,0.032,1.264,0.032c23.092,0,45.452-3.108,66.736-8.844V156h-68
	V511.968z"/>
<polygon style="fill:#CC584C;" points="324,156 256,179.88 188,156 256,132.116 "/>
<path style="fill:#FFDC80;" d="M86.736,447.976c20.116,17.752,43.016,32.4,68,43.172V216h-68
	C86.736,216,86.736,447.976,86.736,447.976z"/>
<path style="fill:#E6BF5A;" d="M154.736,491.148c21.324,9.196,44.148,15.532,68,18.624V216h-68V491.148z"/>
<polygon style="fill:#FFD464;" points="224,216 156,239.88 88,216 156,192.116 "/>
<g>
</g>
<g>
</g>
<g>
</g>
<g>
</g>
<g>
</g>
<g>
</g>
<g>
</g>
<g>
</g>
<g>
</g>
<g>
</g>
<g>
</g>
<g>
</g>
<g>
</g>
<g>
</g>
<g>
</g>
</svg>
